M48
;DRILL file {KiCad 4.0.1-stable} date 02/05/2016 15:04:00
;FORMAT={-:-/ absolute / inch / decimal}
FMAT,2
INCH,TZ
T1C0.020
T2C0.022
T3C0.024
T4C0.031
T5C0.040
T6C0.047
%
G90
G05
M72
T1
X4.0013Y-4.2739
X4.3413Y-3.5239
X4.5413Y-3.9539
X4.6813Y-4.4139
X4.7913Y-3.9939
X4.8213Y-4.0539
X4.8813Y-5.0339
X4.9413Y-4.0039
X4.9413Y-4.8839
X4.9613Y-5.0339
X5.0013Y-4.8839
T3
X4.2013Y-4.2544
X4.2013Y-4.3134
T4
X5.4813Y-4.037
X5.4813Y-4.2339
T5
X4.0613Y-3.2739
X4.0613Y-3.3739
X4.0613Y-3.4739
X4.1613Y-3.2739
X4.1613Y-3.3739
X4.1613Y-3.4739
X4.6457Y-3.3858
X4.7457Y-3.3858
X4.8457Y-3.3858
X4.9457Y-3.3858
X5.0457Y-3.3858
X5.7874Y-4.0323
X5.7874Y-4.1323
X5.7874Y-4.2323
X5.7913Y-3.7039
X5.7913Y-3.8039
T6
X4.2813Y-4.6739
X4.2813Y-4.8707
T1
X4.7834Y-5.0773G85X4.7834Y-5.0517
G05
X5.059Y-5.0773G85X5.059Y-5.0517
G05
T2
X4.8169Y-4.9582G85X4.8287Y-4.9582
G05
X5.0137Y-4.9582G85X5.0256Y-4.9582
G05
T0
M30
