G04 #@! TF.FileFunction,Soldermask,Top*
%FSLAX46Y46*%
G04 Gerber Fmt 4.6, Leading zero omitted, Abs format (unit mm)*
G04 Created by KiCad (PCBNEW 4.0.1-stable) date 02/05/2016 15:03:35*
%MOMM*%
G01*
G04 APERTURE LIST*
%ADD10C,0.100000*%
%ADD11C,0.400000*%
%ADD12R,0.950000X1.900000*%
%ADD13R,1.900000X0.950000*%
%ADD14C,2.100000*%
%ADD15R,2.100000X2.100000*%
%ADD16R,2.127200X2.432000*%
%ADD17O,2.127200X2.432000*%
%ADD18R,2.400000X2.000000*%
%ADD19R,2.127200X2.127200*%
%ADD20O,2.127200X2.127200*%
%ADD21R,0.800000X1.750000*%
%ADD22O,1.650000X1.350000*%
%ADD23O,1.400000X1.950000*%
%ADD24R,2.400000X2.100000*%
%ADD25R,6.000700X2.500580*%
%ADD26R,2.432000X2.127200*%
%ADD27O,2.432000X2.127200*%
%ADD28R,1.950000X1.000000*%
%ADD29C,1.400760*%
%ADD30R,1.700000X1.700000*%
%ADD31C,1.700000*%
%ADD32R,1.620000X1.310000*%
%ADD33R,2.100000X2.400000*%
%ADD34R,2.432000X2.432000*%
%ADD35O,2.432000X2.432000*%
G04 APERTURE END LIST*
D10*
D11*
X142541667Y-128041667D02*
X142541667Y-126291667D01*
X142708333Y-127375000D02*
X143208333Y-128041667D01*
X143208333Y-126875000D02*
X142541667Y-127541667D01*
X143875000Y-127958333D02*
X144041667Y-128041667D01*
X144375000Y-128041667D01*
X144541667Y-127958333D01*
X144625000Y-127791667D01*
X144625000Y-127708333D01*
X144541667Y-127541667D01*
X144375000Y-127458333D01*
X144125000Y-127458333D01*
X143958334Y-127375000D01*
X143875000Y-127208333D01*
X143875000Y-127125000D01*
X143958334Y-126958333D01*
X144125000Y-126875000D01*
X144375000Y-126875000D01*
X144541667Y-126958333D01*
X145375001Y-128041667D02*
X145375001Y-126875000D01*
X145375001Y-127208333D02*
X145458334Y-127041667D01*
X145541667Y-126958333D01*
X145708334Y-126875000D01*
X145875001Y-126875000D01*
X146458334Y-128041667D02*
X146458334Y-126875000D01*
X146458334Y-127041667D02*
X146541667Y-126958333D01*
X146708334Y-126875000D01*
X146958334Y-126875000D01*
X147125000Y-126958333D01*
X147208334Y-127125000D01*
X147208334Y-128041667D01*
X147208334Y-127125000D02*
X147291667Y-126958333D01*
X147458334Y-126875000D01*
X147708334Y-126875000D01*
X147875000Y-126958333D01*
X147958334Y-127125000D01*
X147958334Y-128041667D01*
D12*
X129000000Y-99300000D03*
X128200000Y-99300000D03*
X127400000Y-99300000D03*
X126600000Y-99300000D03*
X125800000Y-99300000D03*
X125000000Y-99300000D03*
X124200000Y-99300000D03*
X123400000Y-99300000D03*
X122600000Y-99300000D03*
X121800000Y-99300000D03*
X121000000Y-99300000D03*
D13*
X119300000Y-101000000D03*
X119300000Y-101800000D03*
X119300000Y-102600000D03*
X119300000Y-103400000D03*
X119300000Y-104200000D03*
X119300000Y-105000000D03*
X119300000Y-105800000D03*
X119300000Y-106600000D03*
X119300000Y-107400000D03*
X119300000Y-108200000D03*
X119300000Y-109000000D03*
D12*
X121000000Y-110700000D03*
X121800000Y-110700000D03*
X122600000Y-110700000D03*
X123400000Y-110700000D03*
X124200000Y-110700000D03*
X125000000Y-110700000D03*
X125800000Y-110700000D03*
X126600000Y-110700000D03*
X127400000Y-110700000D03*
X128200000Y-110700000D03*
X129000000Y-110700000D03*
D13*
X130700000Y-109000000D03*
X130700000Y-108200000D03*
X130700000Y-107400000D03*
X130700000Y-106600000D03*
X130700000Y-105800000D03*
X130700000Y-105000000D03*
X130700000Y-104200000D03*
X130700000Y-103400000D03*
X130700000Y-102600000D03*
X130700000Y-101800000D03*
X130700000Y-101000000D03*
D14*
X108744000Y-123716000D03*
D15*
X108744000Y-118716000D03*
D16*
X118000000Y-86000000D03*
D17*
X120540000Y-86000000D03*
X123080000Y-86000000D03*
X125620000Y-86000000D03*
X128160000Y-86000000D03*
D18*
X106426000Y-102460000D03*
X102426000Y-102460000D03*
X111570000Y-102460000D03*
X115570000Y-102460000D03*
X119190000Y-89506000D03*
X123190000Y-89506000D03*
D19*
X105696000Y-88236000D03*
D20*
X103156000Y-88236000D03*
X105696000Y-85696000D03*
X103156000Y-85696000D03*
X105696000Y-83156000D03*
X103156000Y-83156000D03*
D21*
X123699100Y-125937460D03*
X124349100Y-125937460D03*
X124999100Y-125937460D03*
X125649100Y-125937460D03*
X126299100Y-125937460D03*
D22*
X122499100Y-125937460D03*
X127499100Y-125937460D03*
D23*
X121499100Y-128637460D03*
X128499100Y-128637460D03*
D24*
X106744000Y-91538000D03*
X110744000Y-91538000D03*
D25*
X104149140Y-98142000D03*
X113846860Y-98142000D03*
D26*
X147000000Y-107500000D03*
D27*
X147000000Y-104960000D03*
X147000000Y-102420000D03*
D18*
X105664000Y-106016000D03*
X101664000Y-106016000D03*
X105664000Y-111604000D03*
X101664000Y-111604000D03*
D28*
X109600000Y-106905000D03*
X109600000Y-108175000D03*
X109600000Y-109445000D03*
X109600000Y-110715000D03*
X115000000Y-110715000D03*
X115000000Y-109445000D03*
X115000000Y-108175000D03*
X115000000Y-106905000D03*
D29*
X106712000Y-109559300D03*
X106712000Y-108060700D03*
D30*
X139224000Y-107540000D03*
D31*
X139224000Y-102540000D03*
D32*
X118142000Y-125685000D03*
X118142000Y-122415000D03*
D33*
X118142000Y-115192000D03*
X118142000Y-119192000D03*
D34*
X147098000Y-94078000D03*
D35*
X147098000Y-96618000D03*
D33*
X142780000Y-96586000D03*
X142780000Y-92586000D03*
M02*
